<?xml version="1.0" encoding="UTF-8"?>
<svg width="312px" height="38px" viewBox="0 0 312 38" version="1.1" xmlns="http://www.w3.org/2000/svg" xmlns:xlink="http://www.w3.org/1999/xlink">
    <!-- Generator: Sketch 41.2 (35397) - http://www.bohemiancoding.com/sketch -->
    <title>Page 1</title>
    <desc>Created with Sketch.</desc>
    <defs>
        <polygon id="path-1" points="0.4634 38 29.5784 38 29.5784 0.6923 0.4634 0.6923 0.4634 38"></polygon>
        <polygon id="path-3" points="0 38.3076 311.81 38.3076 311.81 0.9996 0 0.9996"></polygon>
    </defs>
    <g id="Page-1" stroke="none" stroke-width="1" fill="none" fill-rule="evenodd">
        <g transform="translate(0.000000, -1.000000)">
            <path d="M28.5704,24.9834 C28.5704,34.3094 22.9454,38.3074 14.0124,38.3074 C10.7584,38.3074 5.9224,37.5184 2.7604,34.0144 C0.8384,31.8424 0.0964,28.9814 0.0004,25.4264 L0.0004,1.9384 L7.5494,1.9384 L7.5494,24.9344 C7.5494,29.8684 10.4124,32.0404 13.8654,32.0404 C18.9474,32.0404 21.0214,29.5734 21.0214,25.2804 L21.0214,1.9384 L28.5704,1.9384 L28.5704,24.9834 Z" id="Fill-1" fill="#000000"></path>
            <g id="Group-5" transform="translate(86.000000, 0.307600)">
                <mask id="mask-2" fill="white">
                    <use xlink:href="#path-1"></use>
                </mask>
                <g id="Clip-4"></g>
                <path d="M7.5684,26.1563 C7.6194,28.1313 8.6054,31.8813 15.0704,31.8813 C18.5724,31.8813 22.4714,31.0413 22.4714,27.2913 C22.4714,24.5273 19.8054,23.7873 16.0554,22.9003 L12.2574,22.0103 C6.5334,20.6793 1.0064,19.3963 1.0064,11.5993 C1.0064,7.6503 3.1294,0.6923 14.6274,0.6923 C25.4824,0.6923 28.3934,7.7993 28.4434,12.1423 L21.3384,12.1423 C21.1394,10.5623 20.5484,6.8123 14.0844,6.8123 C11.2684,6.8123 7.9164,7.8493 7.9164,11.0543 C7.9164,13.8203 10.1844,14.4123 11.6664,14.7583 L20.2994,16.8793 C25.1354,18.0623 29.5784,20.0373 29.5784,26.4023 C29.5784,37.0623 18.7214,38.0003 15.6134,38.0003 C2.6824,38.0003 0.4634,30.5493 0.4634,26.1563 L7.5684,26.1563 Z" id="Fill-3" fill="#000000" mask="url(#mask-2)"></path>
            </g>
            <polygon id="Fill-6" fill="#000000" points="144.6797 37.3701 137.2797 37.3701 137.2797 8.2061 126.5707 8.2061 126.5707 1.9381 155.3887 1.9381 155.3887 8.2061 144.6797 8.2061"></polygon>
            <path d="M196.6602,24.9834 C196.6602,34.3094 191.0352,38.3074 182.1002,38.3074 C178.8462,38.3074 174.0102,37.5184 170.8492,34.0144 C168.9262,31.8424 168.1842,28.9814 168.0882,25.4264 L168.0882,1.9384 L175.6372,1.9384 L175.6372,24.9344 C175.6372,29.8684 178.5002,32.0404 181.9532,32.0404 C187.0372,32.0404 189.1082,29.5734 189.1082,25.2804 L189.1082,1.9384 L196.6602,1.9384 L196.6602,24.9834 Z" id="Fill-8" fill="#000000"></path>
            <path d="M219.6231,31.251 L226.8281,31.251 C232.8481,31.251 234.8711,25.181 234.8711,19.358 C234.8711,8.896 229.8871,8.058 226.7271,8.058 L219.6231,8.058 L219.6231,31.251 Z M212.3691,1.939 L228.0121,1.939 C239.9531,1.939 242.4201,12.104 242.4201,18.815 C242.4201,26.415 239.4101,37.37 227.7151,37.37 L212.3691,37.37 L212.3691,1.939 Z" id="Fill-10" fill="#000000"></path>
            <mask id="mask-4" fill="white">
                <use xlink:href="#path-3"></use>
            </mask>
            <g id="Clip-13"></g>
            <polygon id="Fill-12" fill="#000000" mask="url(#mask-4)" points="256.343 37.3706 263.745 37.3706 263.745 1.9376 256.343 1.9376"></polygon>
            <path d="M294.7852,32.0401 C298.7832,32.0401 304.4082,29.5731 304.4082,19.6531 C304.4082,9.7351 298.7832,7.2691 294.7852,7.2691 C290.7892,7.2691 285.1622,9.7351 285.1622,19.6531 C285.1622,29.5731 290.7892,32.0401 294.7852,32.0401 M294.7852,1.0001 C299.4722,1.0001 311.8092,3.0241 311.8092,19.6531 C311.8092,36.2831 299.4722,38.3081 294.7852,38.3081 C290.0982,38.3081 277.7602,36.2831 277.7602,19.6531 C277.7602,3.0241 290.0982,1.0001 294.7852,1.0001" id="Fill-14" fill="#000000" mask="url(#mask-4)"></path>
            <path d="M44.4122,14.3252 C44.4122,4.9992 50.0372,1.0012 58.9712,1.0012 C62.2252,1.0012 67.0612,1.7902 70.2222,5.2942 C72.1452,7.4662 72.8872,10.3272 72.9832,13.8822 L72.9832,37.3702 L65.4342,37.3702 L65.4342,14.3742 C65.4342,9.4402 62.5722,7.2682 59.1192,7.2682 C54.0352,7.2682 51.9632,9.7352 51.9632,14.0282 L51.9632,37.3702 L44.4122,37.3702 L44.4122,14.3252 Z" id="Fill-15" fill="#000000" mask="url(#mask-4)"></path>
        </g>
    </g>
</svg>