<?xml version="1.0" encoding="UTF-8"?>
<svg width="313px" height="288px" viewBox="0 0 313 288" version="1.1" xmlns="http://www.w3.org/2000/svg" xmlns:xlink="http://www.w3.org/1999/xlink">
    <!-- Generator: Sketch 41.2 (35397) - http://www.bohemiancoding.com/sketch -->
    <title>logo</title>
    <desc>Created with Sketch.</desc>
    <defs></defs>
    <g id="Page-1" stroke="none" stroke-width="1" fill="none" fill-rule="evenodd">
        <g id="logo" fill="#000000">
            <g id="Group">
                <path d="M29.1,160.4 C29.1,169.7 23.5,173.7 14.5,173.7 C11.2,173.7 6.4,172.9 3.2,169.4 C1.3,167.2 0.5,164.4 0.4,160.8 L0.4,137.3 L8,137.3 L8,160.3 C8,165.2 10.9,167.4 14.3,167.4 C19.4,167.4 21.5,164.9 21.5,160.6 L21.5,137.3 L29.1,137.3 L29.1,160.4 Z" id="Shape"></path>
                <rect id="Rectangle-path" x="91.9" y="137.3" width="7.4" height="35.4"></rect>
                <polygon id="Shape" points="131.5 172.8 124.1 172.8 124.1 143.6 113.4 143.6 113.4 137.3 142.2 137.3 142.2 143.6 131.5 143.6"></polygon>
                <polygon id="Shape" points="182.7 143.6 163.9 143.6 163.9 151.1 181.2 151.1 181.2 157.3 163.9 157.3 163.9 166.5 183.5 166.5 183.5 172.8 156.6 172.8 156.6 137.3 182.7 137.3"></polygon>
                <path d="M199.5,137.3 L215.1,137.3 C227,137.3 229.5,147.5 229.5,154.2 C229.5,161.8 226.5,172.8 214.8,172.8 L199.5,172.8 L199.5,137.3 Z M206.8,166.6 L214,166.6 C220,166.6 222,160.5 222,154.7 C222,144.2 217,143.4 213.9,143.4 L206.8,143.4 L206.8,166.6 Z" id="Shape"></path>
                <polygon id="Shape" points="72.5 200.3 53.7 200.3 53.7 207.7 71 207.7 71 214 53.7 214 53.7 223.2 73.3 223.2 73.3 229.5 46.4 229.5 46.4 194 72.5 194"></polygon>
                <polygon id="Shape" points="104.8 229.5 97.4 229.5 97.4 200.3 86.6 200.3 86.6 194 115.5 194 115.5 200.3 104.8 200.3"></polygon>
                <path d="M128.5,194 L136.4,194 C140.9,213.4 141.4,215.9 142,219.9 L142.1,219.9 C142.7,216.2 143.3,212.6 147,194 L154.8,194 C158.9,213.4 159.3,215.3 160.1,219.9 L160.2,219.9 C160.8,216.5 161.4,213.5 166,194 L173.5,194 L163.5,229.4 L156.4,229.4 C152.7,212 152.1,208.6 150.9,201.8 L150.8,201.8 C149.7,208.6 149.1,211.2 145.3,229.4 L138.4,229.4 L128.5,194 Z" id="Shape"></path>
                <path d="M202.4,193.1 C207.1,193.1 219.4,195.1 219.4,211.8 C219.4,228.5 207.1,230.5 202.4,230.5 C197.7,230.5 185.4,228.5 185.4,211.8 C185.4,195.1 197.7,193.1 202.4,193.1 M202.4,224.1 C206.4,224.1 212,221.6 212,211.7 C212,201.8 206.4,199.3 202.4,199.3 C198.4,199.3 192.8,201.8 192.8,211.7 C192.8,221.7 198.4,224.1 202.4,224.1" id="Shape"></path>
                <path d="M235.4,194 L253.3,194 C262.7,194 264.5,201 264.5,204 C264.5,207.9 262.5,211.3 259,212.4 C261.9,213.7 263.5,214.8 263.5,221.4 C263.5,226.6 263.5,227.9 265.1,228.5 L265.1,229.4 L256.9,229.4 C256.4,227.7 256.1,225.9 256.1,222.2 C256.1,217.4 255.8,215.5 250.3,215.5 L242.7,215.5 L242.7,229.4 L235.4,229.4 L235.4,194 L235.4,194 Z M251.3,209.6 C255.2,209.6 257,208.3 257,204.8 C257,202.9 256.2,200.2 251.8,200.2 L242.6,200.2 L242.6,209.7 L251.3,209.7 L251.3,209.6 Z" id="Shape"></path>
                <polygon id="Shape" points="288.4 229.5 281 229.5 281 194 288.4 194 288.4 208.4 301.9 194 311.5 194 297.1 208.5 312.3 229.5 302.8 229.5 291.9 213.9 288.4 217.5"></polygon>
                <path d="M7.6,275.2 C7.6,277.2 8.6,280.9 15.1,280.9 C18.6,280.9 22.5,280.1 22.5,276.3 C22.5,273.5 19.8,272.8 16.1,271.9 L12.3,271 C6.6,269.7 1.1,268.4 1.1,260.6 C1.1,256.7 3.2,249.7 14.7,249.7 C25.6,249.7 28.5,256.8 28.5,261.1 L21.4,261.1 C21.2,259.5 20.6,255.8 14.1,255.8 C11.3,255.8 7.9,256.8 7.9,260 C7.9,262.8 10.2,263.4 11.7,263.7 L20.3,265.8 C25.1,267 29.6,269 29.6,275.3 C29.6,286 18.7,286.9 15.6,286.9 C2.7,286.9 0.5,279.4 0.5,275.1 L7.6,275.1 L7.6,275.2 Z" id="Shape"></path>
                <polygon id="Shape" points="60.4 286.1 53 286.1 53 257 42.3 257 42.3 250.7 71.1 250.7 71.1 257 60.4 257"></polygon>
                <path d="M114,273.8 C114,283.1 108.4,287.1 99.4,287.1 C96.1,287.1 91.3,286.3 88.2,282.8 C86.3,280.6 85.5,277.8 85.4,274.2 L85.4,250.7 L93,250.7 L93,273.7 C93,278.6 95.9,280.8 99.3,280.8 C104.4,280.8 106.5,278.3 106.5,274 L106.5,250.7 L114.1,250.7 L114.1,273.8 L114,273.8 Z" id="Shape"></path>
                <path d="M131.3,250.7 L147,250.7 C158.9,250.7 161.4,260.9 161.4,267.6 C161.4,275.2 158.4,286.2 146.7,286.2 L131.4,286.2 L131.4,250.7 L131.3,250.7 Z M138.6,280 L145.8,280 C151.8,280 153.8,273.9 153.8,268.1 C153.8,257.6 148.8,256.8 145.7,256.8 L138.6,256.8 L138.6,280 Z" id="Shape"></path>
                <rect id="Rectangle-path" x="176.9" y="250.7" width="7.4" height="35.4"></rect>
                <path d="M217,249.8 C221.7,249.8 234,251.8 234,268.5 C234,285.1 221.7,287.2 217,287.2 C212.3,287.2 200,285.2 200,268.5 C200,251.8 212.3,249.8 217,249.8 M217,280.8 C221,280.8 226.6,278.3 226.6,268.4 C226.6,258.5 221,256 217,256 C213,256 207.4,258.5 207.4,268.4 C207.4,278.4 213,280.8 217,280.8" id="Shape"></path>
                <path d="M0.5,206.4 C0.5,197.1 6.1,193.1 15.1,193.1 C18.4,193.1 23.2,193.9 26.4,197.4 C28.3,199.6 29.1,202.4 29.2,206 L29.2,229.5 L21.6,229.5 L21.6,206.5 C21.6,201.6 18.7,199.4 15.3,199.4 C10.2,199.4 8.1,201.9 8.1,206.2 L8.1,229.5 L0.6,229.5 L0.6,206.4 L0.5,206.4 Z" id="Shape"></path>
                <path d="M46.3,149.7 C46.3,140.4 51.9,136.4 60.9,136.4 C64.2,136.4 69,137.2 72.2,140.7 C74.1,142.9 74.9,145.7 75,149.3 L75,172.8 L67.4,172.8 L67.4,149.8 C67.4,144.9 64.5,142.7 61.1,142.7 C56,142.7 53.9,145.2 53.9,149.5 L53.9,172.8 L46.3,172.8 L46.3,149.7 Z" id="Shape"></path>
                <path d="M67.8,3 L67.8,77.7 C67.8,91.4 61.2,99.3 44.9,99.3 C33.8,99.3 24.7,92.4 24.7,76.6 L24.7,12.1 C24.7,5.4 19.3,7.10542736e-15 12.6,7.10542736e-15 C5.9,7.10542736e-15 0.5,5.4 0.5,12.1 L0.5,78.2 C0.8,89.6 3.2,98.7 9.3,105.7 C19.4,116.9 34.9,119.4 45.3,119.4 C73.9,119.4 91.9,106.6 91.9,76.8 L91.9,3 L67.8,3 Z" id="Shape"></path>
                <path d="M194.4,13.7 C184.3,2.5 168.8,3.55271368e-15 158.4,3.55271368e-15 C129.8,3.55271368e-15 111.8,12.8 111.8,42.6 L111.8,116.3 L136,116.3 L136,41.7 C136,28 142.6,20.1 158.9,20.1 C169.9,20 179,27 179,42.8 L179,107.3 C179,114 184.4,119.4 191.1,119.4 C197.8,119.4 203.2,114 203.2,107.3 L203.2,41.2 C202.9,29.8 200.5,20.7 194.4,13.7" id="Shape"></path>
                <path d="M304.3,19.9 C298.7,9.4 286.9,0 264.5,0 C227.7,0 220.9,22.3 220.9,34.9 C220.9,59.9 238.6,64 256.9,68.2 L269.1,71 C281.1,73.8 289.6,76.2 289.6,85.1 C289.6,97.1 277.1,99.8 265.9,99.8 C245.2,99.8 242.1,87.8 241.9,81.5 L219.2,81.5 C219.2,95.6 226.3,119.4 267.7,119.4 C277.6,119.4 312.4,116.4 312.4,82.3 C312.4,61.9 298.2,55.6 282.7,51.8 L255,45 C250.3,43.9 243,42 243,33.2 C243,22.9 253.7,19.6 262.7,19.6 C276.6,19.6 282,25 284.3,30.1 C286.1,34 290,36.7 294.5,36.7 C300.7,36.7 305.7,31.7 305.7,25.5 C305.8,23.5 305.2,21.5 304.3,19.9 L304.3,19.9 Z" id="Shape"></path>
            </g>
        </g>
    </g>
</svg>