<?xml version="1.0" encoding="UTF-8"?>
<svg width="40px" height="20px" viewBox="0 0 40 20" version="1.1" xmlns="http://www.w3.org/2000/svg" xmlns:xlink="http://www.w3.org/1999/xlink">
    <!-- Generator: Sketch 48.1 (47250) - http://www.bohemiancoding.com/sketch -->
    <title>(un)mute</title>
    <desc>Created with Sketch.</desc>
    <defs></defs>
    <g id="Page-1" stroke="none" stroke-width="1" fill="none" fill-rule="evenodd">
        <g id="(un)mute" fill="#000000">
            <path d="M8.7692508,16 L3.72235577,10.8804501 L0,10.8804501 L0,5.11954993 L3.72235577,5.11954993 L8.7692508,0 L8.7692508,16 Z M13.837474,8 C13.837474,8.96429054 13.5656556,9.85451273 13.0220108,10.6706933 C12.4783659,11.4868738 11.7588467,12.0808805 10.8634316,12.4527311 C10.780286,12.4842439 10.7003394,12.5 10.6235895,12.5 C10.4509023,12.5 10.3038006,12.4401266 10.18228,12.3203782 C10.0607594,12.2006297 10,12.0588243 10,11.894958 C10,11.6491584 10.1247167,11.4632359 10.3741537,11.3371849 C10.7323197,11.1544109 10.9753573,11.0157568 11.1032738,10.9212185 C11.5765646,10.5808807 11.9459178,10.1538891 12.2113444,9.64023109 C12.476771,9.12657306 12.6094823,8.57983483 12.6094823,8 C12.6094823,7.42016517 12.476771,6.87342694 12.2113444,6.35976891 C11.9459178,5.84611088 11.5765646,5.41911935 11.1032738,5.07878151 C10.9753573,4.98424322 10.7323197,4.84558915 10.3741537,4.66281513 C10.1247167,4.53676408 10,4.35084157 10,4.10504202 C10,3.94117565 10.0607594,3.79937035 10.18228,3.67962185 C10.3038006,3.55987335 10.4477045,3.5 10.6139958,3.5 C10.6971415,3.5 10.780286,3.51575614 10.8634316,3.54726891 C11.7588467,3.91911951 12.4783659,4.51312617 13.0220108,5.32930672 C13.5656556,6.14548727 13.837474,7.03570946 13.837474,8 Z M16.544997,8 C16.544997,9.50961842 16.1220495,10.8961493 15.2761418,12.1596343 C14.4302342,13.4231193 13.3045944,14.3534897 11.8991887,14.9507736 C11.8125997,14.9835914 11.7260121,15 11.6394231,15 C11.4662451,15 11.3163818,14.9376471 11.1898287,14.8129395 C11.0632756,14.6882319 11,14.5405541 11,14.3699015 C11,14.1336134 11.1298815,13.9399914 11.3896484,13.7890295 C11.4362733,13.7627753 11.5112049,13.7283171 11.6144456,13.685654 C11.7176863,13.6429909 11.792618,13.6085327 11.8392428,13.5822785 C12.1456345,13.4181895 12.4187188,13.2508213 12.6585036,13.0801688 C13.4777685,12.482885 14.1171852,11.7379323 14.5767728,10.8452883 C15.0363605,9.95264439 15.2661508,9.00422443 15.2661508,8 C15.2661508,6.99577557 15.0363605,6.04735561 14.5767728,5.15471167 C14.1171852,4.26206774 13.4777685,3.51711504 12.6585036,2.91983122 C12.4187188,2.74917871 12.1456345,2.58181048 11.8392428,2.41772152 C11.792618,2.39146729 11.7176863,2.35700912 11.6144456,2.31434599 C11.5112049,2.27168286 11.4362733,2.2372247 11.3896484,2.21097046 C11.1298815,2.06000862 11,1.86638655 11,1.63009845 C11,1.45944594 11.0632756,1.31176809 11.1898287,1.18706048 C11.3163818,1.06235287 11.4662451,1 11.6394231,1 C11.7260121,1 11.8125997,1.01640865 11.8991887,1.04922644 C13.3045944,1.64651025 14.4302342,2.5768807 15.2761418,3.84036568 C16.1220495,5.10385067 16.544997,6.49038158 16.544997,8 Z" id="unmute"></path>
            <path d="M35.8890873,7.9890872 L38.1871843,10.2871842 L38.7175144,10.8175143 L37.6568542,11.8781745 L37.1265242,11.3478444 L34.8284271,9.04974737 L32.5303301,11.3478444 L32,11.8781745 L30.9393398,10.8175143 L31.4696699,10.2871842 L33.767767,7.9890872 L31.4696699,5.69099016 L30.9393398,5.16066008 L32,4.0999999 L32.5303301,4.63032999 L34.8284271,6.92842703 L37.1265242,4.63032999 L37.6568542,4.0999999 L38.7175144,5.16066008 L38.1871843,5.69099016 L35.8890873,7.9890872 Z M28.7692508,16 L23.7223558,10.8804501 L20,10.8804501 L20,5.11954993 L23.7223558,5.11954993 L28.7692508,0 L28.7692508,16 Z" id="mute"></path>
        </g>
    </g>
</svg>